<?xml version="1.0"?>
<svg xmlns="http://www.w3.org/2000/svg" viewBox="0 0 26 26" enable-background="new 0 0 26 26">
    <path d="M 0.90625 -0.03125 A 1.0001 1.0001 0 0 0 0.78125 0 A 1.0001 1.0001 0 0 0 0.28125 1.71875 L 24.28125 25.71875 A 1.016466 1.016466 0 1 0 25.71875 24.28125 L 22.53125 21.09375 C 24.727258 19.066777 26.09375 16.211863 26.09375 13.09375 C 26.09375 8.89375 23.8 5.2125 20 3.3125 C 19.5 3.1125 18.8875 3.2875 18.6875 3.6875 C 18.3875 4.0875 18.6 4.7 19 5 C 22.1 6.5 24 9.6 24 13 C 24 15.615525 22.899606 17.960128 21.0625 19.625 L 19.78125 18.3125 C 21.103125 16.85 21.90625 14.93125 21.90625 12.90625 C 21.90625 10.00625 20.2875 7.30625 17.6875 5.90625 C 17.1875 5.60625 16.6125 5.8125 16.3125 6.3125 C 16.2125 6.8125 16.4125 7.4875 16.8125 7.6875 C 18.8125 8.7875 20 10.8 20 13 C 20 14.520115 19.418385 15.934763 18.4375 17 L 17.03125 15.59375 C 17.650123 14.901144 18 14.007215 18 13 C 18 11.2 16.8 9.59375 15 9.09375 C 14.5 8.99375 13.9125 9.3125 13.8125 9.8125 C 13.7125 10.4125 14 10.89375 14.5 11.09375 C 15.4 11.29375 16 12.1 16 13 C 16 13.435142 15.871609 13.855622 15.625 14.1875 L 13 11.5625 L 13 3.3125 C 13 2.0125 11.9 1.69375 11 2.59375 L 7.46875 6.03125 L 1.71875 0.28125 A 1.0001 1.0001 0 0 0 0.90625 -0.03125 z M 4.6875 8.8125 L 4.40625 9 L 1 9 C 0.4 9 0 9.4 0 10 L 0 16 C 0 16.6 0.4 17 1 17 L 4.40625 17 L 10.90625 23.40625 C 11.90625 24.40625 12.90625 23.9 12.90625 22.5 L 12.90625 17.09375 L 4.6875 8.8125 z"/>
</svg>
