<?xml version="1.0"?>
<svg xmlns="http://www.w3.org/2000/svg" viewBox="0 0 24 24" enable-background="new 0 0 24 24">
    <path d="M 12 2 C 10.4 2 9.1 3.3125 9 4.8125 L 15 10.8125 L 15 5 C 15 3.3 13.7 2 12 2 z M 3.4375 2.03125 L 2.03125 3.4375 L 9 10.40625 L 9 12 C 9 13.7 10.3 15 12 15 C 12.465 15 12.893768 14.874445 13.28125 14.6875 L 14.71875 16.125 C 13.932714 16.657737 13.01236 17 12 17 C 9.2 17 7 14.8 7 12 L 5 12 C 5 15.5 7.6 18.40625 11 18.90625 L 11 22 L 13 22 L 13 18.90625 C 14.1875 18.71875 15.251953 18.254883 16.15625 17.59375 L 20.5625 21.96875 L 21.96875 20.5625 L 14.6875 13.3125 L 9 7.59375 L 3.4375 2.03125 z M 17 12 C 17 12.3 17.00625 12.4875 16.90625 12.6875 L 18.59375 14.40625 C 18.89375 13.70625 19 12.9 19 12 L 17 12 z"/>
</svg>
