<?xml version="1.0"?>
<svg xmlns="http://www.w3.org/2000/svg" viewBox="0 0 50 50">
    <path d="M 20 3 C 19.448 3 19 3.448 19 4 L 19 6.6152344 C 18.28 7.4162344 16.058188 9.9076563 12.242188 14.347656 C 9.9461784 17.019287 8.4941241 19.911902 8.1210938 22.40625 C 7.1882714 23.034072 3 26.142502 3 32 C 3 35.690476 4.0808985 37.971626 5.2519531 39.289062 C 5.8794091 39.994951 6.5363776 40.412935 7.0273438 40.662109 C 6.966052 41.657709 7.0679846 42.913923 7.3457031 44.496094 C 7.6587031 46.264094 9.0686563 47.159562 10.222656 46.976562 C 10.644656 46.908562 12.137187 46.502625 14.367188 45.890625 C 15.553188 45.564625 16.622219 45.269312 16.949219 45.195312 C 17.839219 44.995312 18.596656 44.142063 18.972656 42.914062 C 19.167656 42.284063 19.611937 40.613672 19.835938 39.763672 C 20.715938 39.484672 22.995094 38.917969 26.996094 38.917969 L 27.005859 38.917969 C 31.009859 38.917969 33.292969 39.485719 34.167969 39.761719 C 34.390969 40.611719 34.833344 42.281156 35.027344 42.910156 C 35.404344 44.140156 36.160781 44.995312 37.050781 45.195312 C 37.378781 45.270312 38.447766 45.564625 39.634766 45.890625 C 41.864766 46.502625 43.356297 46.907562 43.779297 46.976562 C 43.878297 46.991562 43.978078 47 44.080078 47 C 45.156078 47 46.372203 46.111187 46.658203 44.492188 C 47.162203 41.617187 47.109859 39.785906 46.505859 38.753906 C 46.159859 38.118906 45.440141 37.387031 44.369141 36.582031 C 41.209141 34.206031 35.365 33 27 33 C 18.635 33 12.790812 34.205031 9.6328125 36.582031 C 8.5933572 37.363321 7.8932704 38.072839 7.5507812 38.669922 C 7.3162383 38.509694 7.0505969 38.301306 6.7480469 37.960938 C 5.9191015 37.028374 5 35.309524 5 32 C 5 28.560953 6.7982902 26.224496 8.125 24.964844 C 8.3583221 26.939063 8.981827 30.951178 9.0136719 31.154297 C 9.0886719 31.641297 9.507 32 10 32 L 15 32 C 15.552 32 16 31.552 16 31 L 16 30 L 37 30 L 37 31 C 37 31.552 37.448 32 38 32 L 43 32 C 43.493 32 43.912281 31.640297 43.988281 31.154297 C 44.025281 30.918297 44.895516 25.351453 44.978516 24.064453 C 45.158516 21.266453 43.581813 17.634656 40.757812 14.347656 C 36.941813 9.9076562 34.72 7.4162344 34 6.6152344 L 34 4 C 34 3.448 33.552 3 33 3 L 30 3 C 29.448 3 29 3.448 29 4 L 29 6 L 24 6 L 24 4 C 24 3.448 23.552 3 23 3 L 20 3 z M 20 12 L 23 12 L 23 14 L 20 14 L 20 12 z M 25 12 L 28 12 L 28 14 L 25 14 L 25 12 z M 30 12 L 33 12 L 33 14 L 30 14 L 30 12 z M 20 16 L 23 16 L 23 18 L 20 18 L 20 16 z M 25 16 L 28 16 L 28 18 L 25 18 L 25 16 z M 30 16 L 33 16 L 33 18 L 30 18 L 30 16 z M 20 20 L 23 20 L 23 22 L 20 22 L 20 20 z M 25 20 L 28 20 L 28 22 L 25 22 L 25 20 z M 30 20 L 33 20 L 33 22 L 30 22 L 30 20 z"/>
</svg>
