<?xml version="1.0"?>
<svg xmlns="http://www.w3.org/2000/svg" viewBox="0 0 50 50">
    <path d="M 24.986328 4 C 14.675328 4 7.6004531 5.6284219 3.9394531 8.8574219 C 2.2564531 10.345422 3.3425156 16.555234 3.3535156 16.615234 C 3.6705156 18.314234 5.0944687 19.162656 6.2304688 18.972656 C 6.6164688 18.908656 8.1578438 18.517688 10.464844 17.929688 C 11.588844 17.641687 12.586156 17.388453 12.910156 17.314453 C 13.796156 17.113453 14.548828 16.306156 14.923828 15.160156 C 15.085828 14.671156 16.027562 12.461656 16.726562 10.847656 C 17.790562 10.593656 20.735 10 25 10 L 25.003906 10 C 29.265906 10 32.210437 10.592703 33.273438 10.845703 C 33.972438 12.460703 34.913219 14.672203 35.074219 15.158203 C 35.455219 16.323203 36.214516 17.130359 37.103516 17.318359 C 37.434516 17.388359 38.507359 17.666656 39.693359 17.972656 C 41.891359 18.539656 43.364203 18.915516 43.783203 18.978516 C 43.878203 18.992516 43.974266 19 44.072266 19 C 45.142266 19 46.354484 18.155094 46.646484 16.621094 C 46.657484 16.559094 47.742641 10.347375 46.056641 8.859375 L 46.041016 8.84375 C 42.398016 5.62975 35.319 4 25 4 L 24.986328 4 z M 18 15 C 17.447 15 17 15.448 17 16 L 17 18.568359 C 15.987 19.534359 12.693187 22.750656 8.7421875 27.347656 C 5.6331875 30.967656 4.991 34.596906 5 37.003906 C 5.007 38.874906 5.9726719 44.902203 6.0136719 45.158203 C 6.0916719 45.643203 6.509 46 7 46 L 12 46 C 12.553 46 13 45.552 13 45 L 13 44 L 37 44 L 37 45 C 37 45.552 37.447 46 38 46 L 43 46 C 43.491 46 43.908328 45.643203 43.986328 45.158203 C 44.027328 44.903203 44.996 38.886953 45 37.001953 C 45.005 34.589953 44.359813 30.957656 41.257812 27.347656 C 37.306812 22.750656 34.013 19.534359 33 18.568359 L 33 16 C 33 15.448 32.553 15 32 15 L 29 15 C 28.447 15 28 15.448 28 16 L 28 18 L 22 18 L 22 16 C 22 15.448 21.553 15 21 15 L 18 15 z M 17 25 L 21 25 L 21 27 L 17 27 L 17 25 z M 23 25 L 27 25 L 27 27 L 23 27 L 23 25 z M 29 25 L 33 25 L 33 27 L 29 27 L 29 25 z M 17 29 L 21 29 L 21 31 L 17 31 L 17 29 z M 23 29 L 27 29 L 27 31 L 23 31 L 23 29 z M 29 29 L 33 29 L 33 31 L 29 31 L 29 29 z M 17 33 L 21 33 L 21 35 L 17 35 L 17 33 z M 23 33 L 27 33 L 27 35 L 23 35 L 23 33 z M 29 33 L 33 33 L 33 35 L 29 35 L 29 33 z"/>
</svg>
