<svg xmlns="http://www.w3.org/2000/svg" viewBox="0 0 16 16">
    <path style="line-height:normal;text-indent:0;text-align:start;text-decoration-line:none;text-decoration-style:solid;text-decoration-color:#000;text-transform:none;block-progression:tb;isolation:auto;mix-blend-mode:normal" d="M 7.5 2 C 6.951621 2 6.4625238 2.019075 6 2.0449219 L 6 2.0390625 C 5.9646707 2.0390625 5.9331681 2.0474754 5.8984375 2.0488281 C 4.3325169 2.1425746 3.2442413 2.3627381 2.5273438 2.5800781 C 2.1204118 2.7036234 1.7646908 2.9583793 1.4863281 3.2871094 C 1.2079654 3.6158395 1 4.0301667 1 4.5 L 1 6 L 2 6 L 4.0097656 6 L 4.0507812 5.5449219 C 4.0507812 5.5449219 4.1165342 4.876553 4.4140625 4.2285156 C 4.5628261 3.9044969 4.7675137 3.5993787 5.0214844 3.3867188 C 5.210032 3.2288401 5.4211827 3.1152159 5.6933594 3.0664062 C 5.7603448 3.061528 5.809791 3.0532006 5.8789062 3.0488281 C 5.8821828 3.0486111 5.8853786 3.0490281 5.8886719 3.0488281 C 6.3724197 3.0184185 6.9073044 3 7.5 3 C 8.0926956 3 8.6275803 3.0184185 9.1113281 3.0488281 C 9.1142573 3.0490123 9.1181684 3.0486431 9.1210938 3.0488281 C 9.1375875 3.0499206 9.1538447 3.051215 9.1699219 3.0527344 C 9.22046 3.0560579 9.2572583 3.0628099 9.3066406 3.0664062 C 9.5788173 3.115216 9.789968 3.2288401 9.9785156 3.3867188 C 10.232486 3.5993788 10.437172 3.9044969 10.585938 4.2285156 C 10.883464 4.876553 10.949219 5.5449219 10.949219 5.5449219 L 10.990234 6 L 13 6 L 13.5 6 L 14 6 L 14 4.5 C 14 4.0301667 13.792035 3.6158395 13.513672 3.2871094 C 13.235309 2.9583793 12.879588 2.7036234 12.472656 2.5800781 C 11.755759 2.3627381 10.667483 2.1425746 9.1015625 2.0488281 C 9.0668319 2.0474754 9.0353293 2.0390625 9 2.0390625 L 9 2.0449219 C 8.5374762 2.019075 8.048379 2 7.5 2 z M 3.7929688 3.3085938 C 3.6857706 3.4747595 3.5828407 3.642876 3.5058594 3.8105469 C 3.2295964 4.4122676 3.2208376 4.7190854 3.1796875 5 L 2 5 L 2 4.5 C 2 4.3448333 2.0876127 4.1253637 2.25 3.9335938 C 2.4123873 3.7418238 2.6422911 3.5905641 2.8183594 3.5371094 C 3.0721184 3.4601779 3.4107897 3.3828851 3.7929688 3.3085938 z M 11.207031 3.3085938 C 11.58921 3.3828851 11.927881 3.4601779 12.181641 3.5371094 C 12.357709 3.5905641 12.587613 3.7418238 12.75 3.9335938 C 12.912387 4.1253637 13 4.3448333 13 4.5 L 13 5 L 11.820312 5 C 11.779162 4.7190854 11.770404 4.4122676 11.494141 3.8105469 C 11.417159 3.642876 11.314229 3.4747595 11.207031 3.3085938 z M 5 6 L 5 7.0625 L 4.9550781 7.0957031 C 4.9550781 7.0957031 4.230758 7.6213109 3.5058594 8.4121094 C 2.7809608 9.2029079 2 10.270833 2 11.5 L 2 12.5 C 2 13.322531 2.6774686 14 3.5 14 L 11.5 14 C 12.322531 14 13 13.322531 13 12.5 L 13 11.5 C 13 10.270833 12.219039 9.2029078 11.494141 8.4121094 C 10.769242 7.6213109 10.044922 7.0957031 10.044922 7.0957031 L 10 7.0625 L 10 6 L 9 6 L 9 7 L 6 7 L 6 6 L 5 6 z M 5.4394531 8 L 9.5605469 8 C 9.6534348 8.0691532 10.158403 8.4361203 10.755859 9.0878906 C 11.405961 9.7970922 12 10.729167 12 11.5 L 12 12.5 C 12 12.781469 11.781469 13 11.5 13 L 3.5 13 C 3.2185314 13 3 12.781469 3 12.5 L 3 11.5 C 3 10.729167 3.5940392 9.7970922 4.2441406 9.0878906 C 4.8415968 8.4361203 5.3465652 8.0691532 5.4394531 8 z M 5 9 L 5 10 L 6 10 L 6 9 L 5 9 z M 7 9 L 7 10 L 8 10 L 8 9 L 7 9 z M 9 9 L 9 10 L 10 10 L 10 9 L 9 9 z M 5 11 L 5 12 L 6 12 L 6 11 L 5 11 z M 7 11 L 7 12 L 8 12 L 8 11 L 7 11 z M 9 11 L 9 12 L 10 12 L 10 11 L 9 11 z"/>
</svg>
