<svg xmlns="http://www.w3.org/2000/svg" viewBox="0 0 16 16">
    <path style="line-height:normal;text-indent:0;text-align:start;text-decoration-line:none;text-decoration-style:solid;text-decoration-color:#000;text-transform:none;block-progression:tb;isolation:auto;mix-blend-mode:normal" d="M 6 1 L 6 2.0625 L 5.9550781 2.0957031 C 5.9550781 2.0957031 5.230758 2.6213109 4.5058594 3.4121094 C 3.7809608 4.2029079 3 5.2708333 3 6.5 L 3 7.0664062 C 1.8336604 7.4999934 1 8.6545055 1 10 C 1 10.922627 1.3993893 11.745054 2.0195312 12.320312 C 2.0126588 12.380077 2 12.43825 2 12.5 L 2 14 L 3 14 L 5.0097656 14 L 5.0507812 13.544922 C 5.0507812 13.544922 5.1165342 12.876553 5.4140625 12.228516 C 5.5628265 11.904497 5.7675137 11.599379 6.0214844 11.386719 C 6.2100317 11.22884 6.4211827 11.115216 6.6933594 11.066406 C 6.7603448 11.061528 6.809791 11.053201 6.8789062 11.048828 C 6.8821828 11.048611 6.8853786 11.049028 6.8886719 11.048828 C 7.3724197 11.018418 7.9073044 11 8.5 11 C 9.0926954 11 9.6275804 11.018418 10.111328 11.048828 C 10.114257 11.049012 10.118168 11.048643 10.121094 11.048828 C 10.137588 11.049921 10.153845 11.051215 10.169922 11.052734 C 10.22046 11.056058 10.257258 11.06281 10.306641 11.066406 C 10.578817 11.115216 10.789968 11.22884 10.978516 11.386719 C 11.232486 11.599379 11.437174 11.904497 11.585938 12.228516 C 11.883464 12.876553 11.949219 13.544922 11.949219 13.544922 L 11.990234 14 L 14 14 L 14.5 14 L 15 14 L 15 12.5 C 15 12.030167 14.792035 11.615839 14.513672 11.287109 C 14.235309 10.958379 13.879588 10.703623 13.472656 10.580078 C 12.755759 10.362738 11.667484 10.142575 10.101562 10.048828 C 10.066833 10.047475 10.035329 10.039064 10 10.039062 L 10 10.044922 C 9.5374761 10.019075 9.0483791 10 8.5 10 C 7.951621 10 7.4625238 10.019075 7 10.044922 L 7 10.039062 C 6.9646707 10.039064 6.9331681 10.047475 6.8984375 10.048828 C 5.3325169 10.142575 4.2442413 10.362738 3.5273438 10.580078 C 3.1204118 10.703623 2.7646908 10.958379 2.4863281 11.287109 C 2.4740456 11.301614 2.4651215 11.319149 2.453125 11.333984 C 2.1752072 10.970939 2 10.511213 2 10 C 2 9.1484776 2.4644398 8.4372597 3.1269531 8.0957031 C 3.3594553 8.6255404 3.8886966 9 4.5 9 L 12.5 9 C 13.322531 9 14 8.3225314 14 7.5 L 14 6.5 C 14 5.2708333 13.219039 4.2029078 12.494141 3.4121094 C 11.769242 2.6213109 11.044922 2.0957031 11.044922 2.0957031 L 11 2.0625 L 11 1 L 10 1 L 10 2 L 7 2 L 7 1 L 6 1 z M 6.4394531 3 L 10.560547 3 C 10.653437 3.069153 11.158403 3.4361203 11.755859 4.0878906 C 12.405961 4.7970922 13 5.7291667 13 6.5 L 13 7.5 C 13 7.7814686 12.781469 8 12.5 8 L 4.5 8 C 4.2185314 8 4 7.7814686 4 7.5 L 4 6.875 L 4 6.5 C 4 5.7291667 4.5940392 4.7970922 5.2441406 4.0878906 C 5.8415968 3.4361203 6.3465652 3.0691532 6.4394531 3 z M 6 4 L 6 5 L 7 5 L 7 4 L 6 4 z M 8 4 L 8 5 L 9 5 L 9 4 L 8 4 z M 10 4 L 10 5 L 11 5 L 11 4 L 10 4 z M 6 6 L 6 7 L 7 7 L 7 6 L 6 6 z M 8 6 L 8 7 L 9 7 L 9 6 L 8 6 z M 10 6 L 10 7 L 11 7 L 11 6 L 10 6 z M 4.7929688 11.308594 C 4.6857707 11.47476 4.5828407 11.642876 4.5058594 11.810547 C 4.2295964 12.412268 4.2208376 12.719085 4.1796875 13 L 3 13 L 3 12.5 C 3 12.344833 3.087613 12.125364 3.25 11.933594 C 3.4123873 11.741824 3.6422911 11.590564 3.8183594 11.537109 C 4.0721184 11.460178 4.4107897 11.382885 4.7929688 11.308594 z M 12.207031 11.308594 C 12.58921 11.382885 12.927881 11.460178 13.181641 11.537109 C 13.357709 11.590569 13.587613 11.741824 13.75 11.933594 C 13.912387 12.125364 14 12.344833 14 12.5 L 14 13 L 12.820312 13 C 12.779162 12.719085 12.770404 12.412268 12.494141 11.810547 C 12.417159 11.642876 12.314229 11.47476 12.207031 11.308594 z"/>
</svg>
